<svg width="30" height="30" viewBox="0 0 30 30" fill="none" xmlns="http://www.w3.org/2000/svg">
<g clip-path="url(#clip0_1_40)">
<circle cx="15" cy="15" r="15" fill="#315EFF"/>
<path d="M14.4707 22.1953C11.9219 22.1953 9.98828 20.623 9.88086 18.4453H11.5801C11.707 19.7051 12.9375 20.6426 14.4707 20.6523C16.3066 20.6426 17.6348 19.3047 17.6348 17.5273C17.6348 15.6914 16.2578 14.334 14.3535 14.3242C13.1621 14.3047 12.2344 14.6758 11.7168 15.5938H10.0176L11.0137 7.85938H18.6699V9.42188H12.4785L11.9512 13.5625H12.0879C12.7227 13.0742 13.6699 12.7422 14.666 12.7422C17.3613 12.7422 19.3438 14.7344 19.3535 17.4883C19.3438 20.2227 17.293 22.1953 14.4707 22.1953Z" fill="white"/>
</g>
<defs>
<clipPath id="clip0_1_40">
<rect width="30" height="30" fill="white"/>
</clipPath>
</defs>
</svg>
