<svg width="30" height="30" viewBox="0 0 30 30" fill="none" xmlns="http://www.w3.org/2000/svg">
<g clip-path="url(#clip0_1_32)">
<circle cx="15" cy="15" r="15" fill="#315EFF"/>
<path d="M14.5391 22.1953C11.7266 22.1953 9.70508 20.6914 9.61719 18.4453H11.3945C11.4922 19.793 12.8301 20.6328 14.5195 20.6328C16.3848 20.6328 17.7324 19.627 17.7422 18.1523C17.7324 16.6094 16.502 15.5254 14.3047 15.5156H13.1523V13.9727H14.3047C16.0234 13.9727 17.2246 13.0059 17.2148 11.5508C17.2246 10.1348 16.1895 9.19727 14.5781 9.1875C13.0645 9.19727 11.6875 10.0273 11.6094 11.4141H9.91016C9.99805 9.16797 12.0879 7.66406 14.5977 7.66406C17.293 7.66406 18.9336 9.43164 18.9141 11.4531C18.9336 13.0645 17.9961 14.2363 16.5117 14.6562V14.7539C18.3574 15.0371 19.4707 16.3555 19.4609 18.1523C19.4707 20.4766 17.3613 22.1953 14.5391 22.1953Z" fill="white"/>
</g>
<defs>
<clipPath id="clip0_1_32">
<rect width="30" height="30" fill="white"/>
</clipPath>
</defs>
</svg>
