<svg width="30" height="30" viewBox="0 0 30 30" fill="none" xmlns="http://www.w3.org/2000/svg">
<g clip-path="url(#clip0_1_44)">
<circle cx="15" cy="15" r="15" fill="#315EFF"/>
<path d="M14.6172 22.1953C12.166 22.166 9.46094 20.7109 9.46094 15.4766C9.46094 10.4668 11.5117 7.66406 14.832 7.66406C17.3223 7.66406 19.0605 9.19727 19.4219 11.4141H17.6836C17.3613 10.1641 16.4043 9.22656 14.832 9.22656C12.5078 9.22656 11.1113 11.209 11.1211 14.6172H11.2969C12.1074 13.4355 13.4062 12.7422 14.9297 12.7422C17.4395 12.7422 19.5391 14.6953 19.5391 17.4297C19.5391 20.0957 17.5957 22.2246 14.6172 22.1953ZM11.3555 17.4688C11.3652 19.1289 12.7227 20.6426 14.6172 20.6523C16.4434 20.6426 17.8301 19.207 17.8398 17.4492C17.8301 15.7109 16.502 14.2949 14.6562 14.2852C12.8008 14.2949 11.375 15.7988 11.3555 17.4688Z" fill="white"/>
</g>
<defs>
<clipPath id="clip0_1_44">
<rect width="30" height="30" fill="white"/>
</clipPath>
</defs>
</svg>
